<svg width="27" height="27" viewBox="0 0 27 27" fill="none" xmlns="http://www.w3.org/2000/svg">
<path d="M0 13.5712C0 6.31215 5.88466 0.42749 13.1438 0.42749C20.4029 0.42749 26.2875 6.31215 26.2875 13.5713C26.2875 20.8304 20.4029 26.715 13.1438 26.715C5.88466 26.715 0 20.8304 0 13.5712Z" fill="#15803D"/>
<path fill-rule="evenodd" clip-rule="evenodd" d="M19.4173 9.04396C19.6021 9.22882 19.7059 9.47951 19.7059 9.74091C19.7059 10.0023 19.6021 10.253 19.4173 10.4379L12.0286 17.8266C11.9309 17.9243 11.815 18.0018 11.6874 18.0546C11.5598 18.1075 11.423 18.1347 11.2849 18.1347C11.1468 18.1347 11.0101 18.1075 10.8825 18.0546C10.7549 18.0018 10.639 17.9243 10.5413 17.8266L6.87028 14.1562C6.77613 14.0653 6.70103 13.9565 6.64937 13.8362C6.5977 13.716 6.57051 13.5866 6.56937 13.4557C6.56824 13.3248 6.59318 13.195 6.64274 13.0739C6.69231 12.9527 6.76551 12.8427 6.85806 12.7501C6.95062 12.6576 7.06069 12.5844 7.18184 12.5348C7.30298 12.4852 7.43279 12.4603 7.56368 12.4614C7.69458 12.4626 7.82393 12.4897 7.9442 12.5414C8.06447 12.5931 8.17324 12.6682 8.26418 12.7623L11.2846 15.7828L18.0228 9.04396C18.1143 8.95235 18.223 8.87968 18.3427 8.8301C18.4623 8.78052 18.5905 8.755 18.72 8.755C18.8495 8.755 18.9778 8.78052 19.0974 8.8301C19.2171 8.87968 19.3258 8.95235 19.4173 9.04396Z" fill="#F3F4F6"/>
</svg>
